<mxfile host="app.diagrams.net" modified="2021-08-06T04:47:03.445Z" agent="5.0 (Windows)" etag="tHqyOuiDz1fxAzqj8pHX" version="14.9.4" type="github">
  <diagram id="LAWDuNIMJcRqsKpLeht5" name="Page-1">
    <mxGraphModel dx="1038" dy="564" grid="1" gridSize="10" guides="1" tooltips="1" connect="1" arrows="1" fold="1" page="1" pageScale="1" pageWidth="850" pageHeight="1100" math="0" shadow="0">
      <root>
        <mxCell id="0" />
        <mxCell id="1" parent="0" />
        <mxCell id="PHHjDRlWd3RHrg6wNQG7-1" value="hours" style="shape=table;startSize=30;container=1;collapsible=1;childLayout=tableLayout;fixedRows=1;rowLines=0;fontStyle=1;align=center;resizeLast=1;" vertex="1" parent="1">
          <mxGeometry x="450" y="360" width="180" height="150" as="geometry" />
        </mxCell>
        <mxCell id="PHHjDRlWd3RHrg6wNQG7-2" value="" style="shape=partialRectangle;collapsible=0;dropTarget=0;pointerEvents=0;fillColor=none;top=0;left=0;bottom=1;right=0;points=[[0,0.5],[1,0.5]];portConstraint=eastwest;" vertex="1" parent="PHHjDRlWd3RHrg6wNQG7-1">
          <mxGeometry y="30" width="180" height="30" as="geometry" />
        </mxCell>
        <mxCell id="PHHjDRlWd3RHrg6wNQG7-3" value="PK" style="shape=partialRectangle;connectable=0;fillColor=none;top=0;left=0;bottom=0;right=0;fontStyle=1;overflow=hidden;" vertex="1" parent="PHHjDRlWd3RHrg6wNQG7-2">
          <mxGeometry width="30" height="30" as="geometry" />
        </mxCell>
        <mxCell id="PHHjDRlWd3RHrg6wNQG7-4" value="hourlyCharged" style="shape=partialRectangle;connectable=0;fillColor=none;top=0;left=0;bottom=0;right=0;align=left;spacingLeft=6;fontStyle=5;overflow=hidden;" vertex="1" parent="PHHjDRlWd3RHrg6wNQG7-2">
          <mxGeometry x="30" width="150" height="30" as="geometry" />
        </mxCell>
        <mxCell id="PHHjDRlWd3RHrg6wNQG7-5" value="" style="shape=partialRectangle;collapsible=0;dropTarget=0;pointerEvents=0;fillColor=none;top=0;left=0;bottom=0;right=0;points=[[0,0.5],[1,0.5]];portConstraint=eastwest;" vertex="1" parent="PHHjDRlWd3RHrg6wNQG7-1">
          <mxGeometry y="60" width="180" height="30" as="geometry" />
        </mxCell>
        <mxCell id="PHHjDRlWd3RHrg6wNQG7-6" value="FK" style="shape=partialRectangle;connectable=0;fillColor=none;top=0;left=0;bottom=0;right=0;editable=1;overflow=hidden;" vertex="1" parent="PHHjDRlWd3RHrg6wNQG7-5">
          <mxGeometry width="30" height="30" as="geometry" />
        </mxCell>
        <mxCell id="PHHjDRlWd3RHrg6wNQG7-7" value="invoice" style="shape=partialRectangle;connectable=0;fillColor=none;top=0;left=0;bottom=0;right=0;align=left;spacingLeft=6;overflow=hidden;" vertex="1" parent="PHHjDRlWd3RHrg6wNQG7-5">
          <mxGeometry x="30" width="150" height="30" as="geometry" />
        </mxCell>
        <mxCell id="PHHjDRlWd3RHrg6wNQG7-8" value="" style="shape=partialRectangle;collapsible=0;dropTarget=0;pointerEvents=0;fillColor=none;top=0;left=0;bottom=0;right=0;points=[[0,0.5],[1,0.5]];portConstraint=eastwest;" vertex="1" parent="PHHjDRlWd3RHrg6wNQG7-1">
          <mxGeometry y="90" width="180" height="30" as="geometry" />
        </mxCell>
        <mxCell id="PHHjDRlWd3RHrg6wNQG7-9" value="" style="shape=partialRectangle;connectable=0;fillColor=none;top=0;left=0;bottom=0;right=0;editable=1;overflow=hidden;" vertex="1" parent="PHHjDRlWd3RHrg6wNQG7-8">
          <mxGeometry width="30" height="30" as="geometry" />
        </mxCell>
        <mxCell id="PHHjDRlWd3RHrg6wNQG7-10" value="" style="shape=partialRectangle;connectable=0;fillColor=none;top=0;left=0;bottom=0;right=0;align=left;spacingLeft=6;overflow=hidden;" vertex="1" parent="PHHjDRlWd3RHrg6wNQG7-8">
          <mxGeometry x="30" width="150" height="30" as="geometry" />
        </mxCell>
        <mxCell id="PHHjDRlWd3RHrg6wNQG7-11" value="" style="shape=partialRectangle;collapsible=0;dropTarget=0;pointerEvents=0;fillColor=none;top=0;left=0;bottom=0;right=0;points=[[0,0.5],[1,0.5]];portConstraint=eastwest;" vertex="1" parent="PHHjDRlWd3RHrg6wNQG7-1">
          <mxGeometry y="120" width="180" height="30" as="geometry" />
        </mxCell>
        <mxCell id="PHHjDRlWd3RHrg6wNQG7-12" value="" style="shape=partialRectangle;connectable=0;fillColor=none;top=0;left=0;bottom=0;right=0;editable=1;overflow=hidden;" vertex="1" parent="PHHjDRlWd3RHrg6wNQG7-11">
          <mxGeometry width="30" height="30" as="geometry" />
        </mxCell>
        <mxCell id="PHHjDRlWd3RHrg6wNQG7-13" value="" style="shape=partialRectangle;connectable=0;fillColor=none;top=0;left=0;bottom=0;right=0;align=left;spacingLeft=6;overflow=hidden;" vertex="1" parent="PHHjDRlWd3RHrg6wNQG7-11">
          <mxGeometry x="30" width="150" height="30" as="geometry" />
        </mxCell>
        <mxCell id="PHHjDRlWd3RHrg6wNQG7-14" value="Duration" style="shape=table;startSize=30;container=1;collapsible=1;childLayout=tableLayout;fixedRows=1;rowLines=0;fontStyle=1;align=center;resizeLast=1;" vertex="1" parent="1">
          <mxGeometry x="600" y="100" width="180" height="160" as="geometry" />
        </mxCell>
        <mxCell id="PHHjDRlWd3RHrg6wNQG7-15" value="" style="shape=partialRectangle;collapsible=0;dropTarget=0;pointerEvents=0;fillColor=none;top=0;left=0;bottom=1;right=0;points=[[0,0.5],[1,0.5]];portConstraint=eastwest;" vertex="1" parent="PHHjDRlWd3RHrg6wNQG7-14">
          <mxGeometry y="30" width="180" height="30" as="geometry" />
        </mxCell>
        <mxCell id="PHHjDRlWd3RHrg6wNQG7-16" value="PK" style="shape=partialRectangle;connectable=0;fillColor=none;top=0;left=0;bottom=0;right=0;fontStyle=1;overflow=hidden;" vertex="1" parent="PHHjDRlWd3RHrg6wNQG7-15">
          <mxGeometry width="30" height="30" as="geometry" />
        </mxCell>
        <mxCell id="PHHjDRlWd3RHrg6wNQG7-17" value="workDuration" style="shape=partialRectangle;connectable=0;fillColor=none;top=0;left=0;bottom=0;right=0;align=left;spacingLeft=6;fontStyle=5;overflow=hidden;" vertex="1" parent="PHHjDRlWd3RHrg6wNQG7-15">
          <mxGeometry x="30" width="150" height="30" as="geometry" />
        </mxCell>
        <mxCell id="PHHjDRlWd3RHrg6wNQG7-18" value="" style="shape=partialRectangle;collapsible=0;dropTarget=0;pointerEvents=0;fillColor=none;top=0;left=0;bottom=0;right=0;points=[[0,0.5],[1,0.5]];portConstraint=eastwest;" vertex="1" parent="PHHjDRlWd3RHrg6wNQG7-14">
          <mxGeometry y="60" width="180" height="30" as="geometry" />
        </mxCell>
        <mxCell id="PHHjDRlWd3RHrg6wNQG7-19" value="" style="shape=partialRectangle;connectable=0;fillColor=none;top=0;left=0;bottom=0;right=0;editable=1;overflow=hidden;" vertex="1" parent="PHHjDRlWd3RHrg6wNQG7-18">
          <mxGeometry width="30" height="30" as="geometry" />
        </mxCell>
        <mxCell id="PHHjDRlWd3RHrg6wNQG7-20" value="" style="shape=partialRectangle;connectable=0;fillColor=none;top=0;left=0;bottom=0;right=0;align=left;spacingLeft=6;overflow=hidden;" vertex="1" parent="PHHjDRlWd3RHrg6wNQG7-18">
          <mxGeometry x="30" width="150" height="30" as="geometry" />
        </mxCell>
        <mxCell id="PHHjDRlWd3RHrg6wNQG7-21" value="" style="shape=partialRectangle;collapsible=0;dropTarget=0;pointerEvents=0;fillColor=none;top=0;left=0;bottom=0;right=0;points=[[0,0.5],[1,0.5]];portConstraint=eastwest;" vertex="1" parent="PHHjDRlWd3RHrg6wNQG7-14">
          <mxGeometry y="90" width="180" height="30" as="geometry" />
        </mxCell>
        <mxCell id="PHHjDRlWd3RHrg6wNQG7-22" value="" style="shape=partialRectangle;connectable=0;fillColor=none;top=0;left=0;bottom=0;right=0;editable=1;overflow=hidden;" vertex="1" parent="PHHjDRlWd3RHrg6wNQG7-21">
          <mxGeometry width="30" height="30" as="geometry" />
        </mxCell>
        <mxCell id="PHHjDRlWd3RHrg6wNQG7-23" value="totalCharged" style="shape=partialRectangle;connectable=0;fillColor=none;top=0;left=0;bottom=0;right=0;align=left;spacingLeft=6;overflow=hidden;" vertex="1" parent="PHHjDRlWd3RHrg6wNQG7-21">
          <mxGeometry x="30" width="150" height="30" as="geometry" />
        </mxCell>
        <mxCell id="PHHjDRlWd3RHrg6wNQG7-24" value="" style="shape=partialRectangle;collapsible=0;dropTarget=0;pointerEvents=0;fillColor=none;top=0;left=0;bottom=0;right=0;points=[[0,0.5],[1,0.5]];portConstraint=eastwest;" vertex="1" parent="PHHjDRlWd3RHrg6wNQG7-14">
          <mxGeometry y="120" width="180" height="30" as="geometry" />
        </mxCell>
        <mxCell id="PHHjDRlWd3RHrg6wNQG7-25" value="" style="shape=partialRectangle;connectable=0;fillColor=none;top=0;left=0;bottom=0;right=0;editable=1;overflow=hidden;" vertex="1" parent="PHHjDRlWd3RHrg6wNQG7-24">
          <mxGeometry width="30" height="30" as="geometry" />
        </mxCell>
        <mxCell id="PHHjDRlWd3RHrg6wNQG7-26" value="" style="shape=partialRectangle;connectable=0;fillColor=none;top=0;left=0;bottom=0;right=0;align=left;spacingLeft=6;overflow=hidden;" vertex="1" parent="PHHjDRlWd3RHrg6wNQG7-24">
          <mxGeometry x="30" width="150" height="30" as="geometry" />
        </mxCell>
        <mxCell id="PHHjDRlWd3RHrg6wNQG7-27" value="Invoice" style="shape=table;startSize=30;container=1;collapsible=1;childLayout=tableLayout;fixedRows=1;rowLines=0;fontStyle=1;align=center;resizeLast=1;" vertex="1" parent="1">
          <mxGeometry x="90" y="240" width="180" height="160" as="geometry" />
        </mxCell>
        <mxCell id="PHHjDRlWd3RHrg6wNQG7-28" value="" style="shape=partialRectangle;collapsible=0;dropTarget=0;pointerEvents=0;fillColor=none;top=0;left=0;bottom=1;right=0;points=[[0,0.5],[1,0.5]];portConstraint=eastwest;" vertex="1" parent="PHHjDRlWd3RHrg6wNQG7-27">
          <mxGeometry y="30" width="180" height="30" as="geometry" />
        </mxCell>
        <mxCell id="PHHjDRlWd3RHrg6wNQG7-29" value="PK" style="shape=partialRectangle;connectable=0;fillColor=none;top=0;left=0;bottom=0;right=0;fontStyle=1;overflow=hidden;" vertex="1" parent="PHHjDRlWd3RHrg6wNQG7-28">
          <mxGeometry width="30" height="30" as="geometry" />
        </mxCell>
        <mxCell id="PHHjDRlWd3RHrg6wNQG7-30" value="invoice" style="shape=partialRectangle;connectable=0;fillColor=none;top=0;left=0;bottom=0;right=0;align=left;spacingLeft=6;fontStyle=5;overflow=hidden;" vertex="1" parent="PHHjDRlWd3RHrg6wNQG7-28">
          <mxGeometry x="30" width="150" height="30" as="geometry" />
        </mxCell>
        <mxCell id="PHHjDRlWd3RHrg6wNQG7-31" value="" style="shape=partialRectangle;collapsible=0;dropTarget=0;pointerEvents=0;fillColor=none;top=0;left=0;bottom=0;right=0;points=[[0,0.5],[1,0.5]];portConstraint=eastwest;" vertex="1" parent="PHHjDRlWd3RHrg6wNQG7-27">
          <mxGeometry y="60" width="180" height="30" as="geometry" />
        </mxCell>
        <mxCell id="PHHjDRlWd3RHrg6wNQG7-32" value="" style="shape=partialRectangle;connectable=0;fillColor=none;top=0;left=0;bottom=0;right=0;editable=1;overflow=hidden;" vertex="1" parent="PHHjDRlWd3RHrg6wNQG7-31">
          <mxGeometry width="30" height="30" as="geometry" />
        </mxCell>
        <mxCell id="PHHjDRlWd3RHrg6wNQG7-33" value="invoiceDate" style="shape=partialRectangle;connectable=0;fillColor=none;top=0;left=0;bottom=0;right=0;align=left;spacingLeft=6;overflow=hidden;" vertex="1" parent="PHHjDRlWd3RHrg6wNQG7-31">
          <mxGeometry x="30" width="150" height="30" as="geometry" />
        </mxCell>
        <mxCell id="PHHjDRlWd3RHrg6wNQG7-34" value="" style="shape=partialRectangle;collapsible=0;dropTarget=0;pointerEvents=0;fillColor=none;top=0;left=0;bottom=0;right=0;points=[[0,0.5],[1,0.5]];portConstraint=eastwest;" vertex="1" parent="PHHjDRlWd3RHrg6wNQG7-27">
          <mxGeometry y="90" width="180" height="30" as="geometry" />
        </mxCell>
        <mxCell id="PHHjDRlWd3RHrg6wNQG7-35" value="" style="shape=partialRectangle;connectable=0;fillColor=none;top=0;left=0;bottom=0;right=0;editable=1;overflow=hidden;" vertex="1" parent="PHHjDRlWd3RHrg6wNQG7-34">
          <mxGeometry width="30" height="30" as="geometry" />
        </mxCell>
        <mxCell id="PHHjDRlWd3RHrg6wNQG7-36" value="workTeam" style="shape=partialRectangle;connectable=0;fillColor=none;top=0;left=0;bottom=0;right=0;align=left;spacingLeft=6;overflow=hidden;" vertex="1" parent="PHHjDRlWd3RHrg6wNQG7-34">
          <mxGeometry x="30" width="150" height="30" as="geometry" />
        </mxCell>
        <mxCell id="PHHjDRlWd3RHrg6wNQG7-37" value="" style="shape=partialRectangle;collapsible=0;dropTarget=0;pointerEvents=0;fillColor=none;top=0;left=0;bottom=0;right=0;points=[[0,0.5],[1,0.5]];portConstraint=eastwest;" vertex="1" parent="PHHjDRlWd3RHrg6wNQG7-27">
          <mxGeometry y="120" width="180" height="30" as="geometry" />
        </mxCell>
        <mxCell id="PHHjDRlWd3RHrg6wNQG7-38" value="" style="shape=partialRectangle;connectable=0;fillColor=none;top=0;left=0;bottom=0;right=0;editable=1;overflow=hidden;" vertex="1" parent="PHHjDRlWd3RHrg6wNQG7-37">
          <mxGeometry width="30" height="30" as="geometry" />
        </mxCell>
        <mxCell id="PHHjDRlWd3RHrg6wNQG7-39" value="equip" style="shape=partialRectangle;connectable=0;fillColor=none;top=0;left=0;bottom=0;right=0;align=left;spacingLeft=6;overflow=hidden;" vertex="1" parent="PHHjDRlWd3RHrg6wNQG7-37">
          <mxGeometry x="30" width="150" height="30" as="geometry" />
        </mxCell>
        <mxCell id="PHHjDRlWd3RHrg6wNQG7-40" value="Service" style="shape=table;startSize=30;container=1;collapsible=1;childLayout=tableLayout;fixedRows=1;rowLines=0;fontStyle=1;align=center;resizeLast=1;" vertex="1" parent="1">
          <mxGeometry x="330" y="40" width="180" height="160" as="geometry" />
        </mxCell>
        <mxCell id="PHHjDRlWd3RHrg6wNQG7-41" value="" style="shape=partialRectangle;collapsible=0;dropTarget=0;pointerEvents=0;fillColor=none;top=0;left=0;bottom=1;right=0;points=[[0,0.5],[1,0.5]];portConstraint=eastwest;" vertex="1" parent="PHHjDRlWd3RHrg6wNQG7-40">
          <mxGeometry y="30" width="180" height="30" as="geometry" />
        </mxCell>
        <mxCell id="PHHjDRlWd3RHrg6wNQG7-42" value="PK" style="shape=partialRectangle;connectable=0;fillColor=none;top=0;left=0;bottom=0;right=0;fontStyle=1;overflow=hidden;" vertex="1" parent="PHHjDRlWd3RHrg6wNQG7-41">
          <mxGeometry width="30" height="30" as="geometry" />
        </mxCell>
        <mxCell id="PHHjDRlWd3RHrg6wNQG7-43" value="serviceCode" style="shape=partialRectangle;connectable=0;fillColor=none;top=0;left=0;bottom=0;right=0;align=left;spacingLeft=6;fontStyle=5;overflow=hidden;" vertex="1" parent="PHHjDRlWd3RHrg6wNQG7-41">
          <mxGeometry x="30" width="150" height="30" as="geometry" />
        </mxCell>
        <mxCell id="PHHjDRlWd3RHrg6wNQG7-44" value="" style="shape=partialRectangle;collapsible=0;dropTarget=0;pointerEvents=0;fillColor=none;top=0;left=0;bottom=0;right=0;points=[[0,0.5],[1,0.5]];portConstraint=eastwest;" vertex="1" parent="PHHjDRlWd3RHrg6wNQG7-40">
          <mxGeometry y="60" width="180" height="30" as="geometry" />
        </mxCell>
        <mxCell id="PHHjDRlWd3RHrg6wNQG7-45" value="FK" style="shape=partialRectangle;connectable=0;fillColor=none;top=0;left=0;bottom=0;right=0;editable=1;overflow=hidden;" vertex="1" parent="PHHjDRlWd3RHrg6wNQG7-44">
          <mxGeometry width="30" height="30" as="geometry" />
        </mxCell>
        <mxCell id="PHHjDRlWd3RHrg6wNQG7-46" value="invoice" style="shape=partialRectangle;connectable=0;fillColor=none;top=0;left=0;bottom=0;right=0;align=left;spacingLeft=6;overflow=hidden;" vertex="1" parent="PHHjDRlWd3RHrg6wNQG7-44">
          <mxGeometry x="30" width="150" height="30" as="geometry" />
        </mxCell>
        <mxCell id="PHHjDRlWd3RHrg6wNQG7-47" value="" style="shape=partialRectangle;collapsible=0;dropTarget=0;pointerEvents=0;fillColor=none;top=0;left=0;bottom=0;right=0;points=[[0,0.5],[1,0.5]];portConstraint=eastwest;" vertex="1" parent="PHHjDRlWd3RHrg6wNQG7-40">
          <mxGeometry y="90" width="180" height="30" as="geometry" />
        </mxCell>
        <mxCell id="PHHjDRlWd3RHrg6wNQG7-48" value="" style="shape=partialRectangle;connectable=0;fillColor=none;top=0;left=0;bottom=0;right=0;editable=1;overflow=hidden;" vertex="1" parent="PHHjDRlWd3RHrg6wNQG7-47">
          <mxGeometry width="30" height="30" as="geometry" />
        </mxCell>
        <mxCell id="PHHjDRlWd3RHrg6wNQG7-49" value="description" style="shape=partialRectangle;connectable=0;fillColor=none;top=0;left=0;bottom=0;right=0;align=left;spacingLeft=6;overflow=hidden;" vertex="1" parent="PHHjDRlWd3RHrg6wNQG7-47">
          <mxGeometry x="30" width="150" height="30" as="geometry" />
        </mxCell>
        <mxCell id="PHHjDRlWd3RHrg6wNQG7-50" value="" style="shape=partialRectangle;collapsible=0;dropTarget=0;pointerEvents=0;fillColor=none;top=0;left=0;bottom=0;right=0;points=[[0,0.5],[1,0.5]];portConstraint=eastwest;" vertex="1" parent="PHHjDRlWd3RHrg6wNQG7-40">
          <mxGeometry y="120" width="180" height="30" as="geometry" />
        </mxCell>
        <mxCell id="PHHjDRlWd3RHrg6wNQG7-51" value="" style="shape=partialRectangle;connectable=0;fillColor=none;top=0;left=0;bottom=0;right=0;editable=1;overflow=hidden;" vertex="1" parent="PHHjDRlWd3RHrg6wNQG7-50">
          <mxGeometry width="30" height="30" as="geometry" />
        </mxCell>
        <mxCell id="PHHjDRlWd3RHrg6wNQG7-52" value="" style="shape=partialRectangle;connectable=0;fillColor=none;top=0;left=0;bottom=0;right=0;align=left;spacingLeft=6;overflow=hidden;" vertex="1" parent="PHHjDRlWd3RHrg6wNQG7-50">
          <mxGeometry x="30" width="150" height="30" as="geometry" />
        </mxCell>
        <mxCell id="PHHjDRlWd3RHrg6wNQG7-57" value="" style="edgeStyle=entityRelationEdgeStyle;fontSize=12;html=1;endArrow=ERoneToMany;entryX=0.011;entryY=0.3;entryDx=0;entryDy=0;entryPerimeter=0;exitX=0;exitY=0.5;exitDx=0;exitDy=0;" edge="1" parent="1" source="PHHjDRlWd3RHrg6wNQG7-28" target="PHHjDRlWd3RHrg6wNQG7-44">
          <mxGeometry width="100" height="100" relative="1" as="geometry">
            <mxPoint x="180" y="170" as="sourcePoint" />
            <mxPoint x="280" y="70" as="targetPoint" />
          </mxGeometry>
        </mxCell>
        <mxCell id="PHHjDRlWd3RHrg6wNQG7-58" value="" style="edgeStyle=entityRelationEdgeStyle;fontSize=12;html=1;endArrow=ERoneToMany;exitX=1.011;exitY=0;exitDx=0;exitDy=0;exitPerimeter=0;entryX=0;entryY=0.5;entryDx=0;entryDy=0;" edge="1" parent="1" source="PHHjDRlWd3RHrg6wNQG7-31" target="PHHjDRlWd3RHrg6wNQG7-5">
          <mxGeometry width="100" height="100" relative="1" as="geometry">
            <mxPoint x="360" y="340" as="sourcePoint" />
            <mxPoint x="460" y="240" as="targetPoint" />
          </mxGeometry>
        </mxCell>
        <mxCell id="PHHjDRlWd3RHrg6wNQG7-59" value="" style="edgeStyle=entityRelationEdgeStyle;fontSize=12;html=1;endArrow=ERmandOne;startArrow=ERmandOne;" edge="1" parent="1" source="PHHjDRlWd3RHrg6wNQG7-2" target="PHHjDRlWd3RHrg6wNQG7-15">
          <mxGeometry width="100" height="100" relative="1" as="geometry">
            <mxPoint x="360" y="340" as="sourcePoint" />
            <mxPoint x="460" y="240" as="targetPoint" />
          </mxGeometry>
        </mxCell>
      </root>
    </mxGraphModel>
  </diagram>
</mxfile>
